<?xml version="1.0" encoding="UTF-8"?>
<svg id="Layer_1" data-name="Layer 1" xmlns="http://www.w3.org/2000/svg" viewBox="0 0 1999.95 2000.71">
  <path d="M376.97,833.86c-8.21,1.18,6.15-22.79,8.35-27.57,9.65-20.97,20.45-41.43,31.23-61.83,10.69-20.23,21.74-40.46,33.53-60.09-.01.01.06-.1.24-.4-.08.13-.16.27-.24.4.15-.17,15.75-25.43,16.75-24.11,35.2,46.62,70.4,93.24,105.6,139.85,12.84,14.41,24.55,29.88,34.96,46.3,2.76,4.35-8.31,22.4-10.4,26.96-9.64,20.97-20.45,41.43-31.23,61.83-10.69,20.23-21.74,40.46-33.53,60.09.01-.01-.06.1-.24.4.08-.13.16-.27.24-.4-.14.15-15.75,25.43-16.75,24.11-3.1-4.11-6.21-8.22-9.31-12.33.45,4.69.92,9.38,1.37,14.07,16.89,177.17,29.41,354.75,37.56,532.53,3.85,84,6.68,168.04,8.58,252.11,79.18-21.51,153.41-59.02,219.53-108.31,54.75-42.32,103.31-91.64,145.7-145.8-98.96-4.9-197.12-26.21-289.1-64.68-7.09-2.97.36-32.28,1.31-38.18,3.83-23.91,10.09-47.62,16.34-70.99,6.16-23.03,12.93-45.89,20.46-68.51,5.1-20.39,10.96-40.51,16.52-60.14,21.47-75.81,45.86-159.85,111.41-210.35,71.8-55.31,170.73-58.63,233.08,13.86,62.06,72.15,60,166.15,41.92,255.46,168.65-7.44,334.63-62.12,471.69-159.08-8.93-4.08-18.07-7.97-26.91-12.3-29.31-14.37-57.25-31.48-83.3-51.05-51.73-38.87-96.22-87.7-127.26-144.17-26.88-48.9-44.06-103.2-47.06-158.72-5.13-94.96,22.23-191.91,50.79-281.21,23.15-72.38,50.68-148.1,105.84-203.14,40.41-40.32,92.18-67.48,147.27-82.97,51.38-14.45,103.72-19.4,156.44-20.47,77.11-1.57,155.02,5.14,231.9,2.58,16.7-.56,33.23-1.76,49.58-3.57v-55.62C1999.78,61.96,1937.83,0,1861.41,0l-772.08.07c11.24,17.39,20.78,35.74,26.01,54.99.11.4.19.79.3,1.19,4.09,15.65,5.23,31.84,5.69,47.96.91,32.1-.73,64.22-4.43,96.11-2.96,25.47-6.07,52.63-25.01,71.56-21.92,21.9-58.23,24.96-86.31,14.88-22.59-8.1-41.38-23-58.3-39.89-.45,8.72-1.01,17.44-1.65,26.13-1.83,24.93-4.34,50.47-10.29,74.83-10.16,41.59-33.57,83.11-75.82,98.59-37.95,13.91-80.7,2.9-113.35-18.92-86.9-58.09-90.27-178.69-91.27-272.37-.03-2.89-.05-5.81-.06-8.73-.1-31.67,1.25-65.33,8.28-95.93-.04-3.59,1.07-6.57,3.32-8.94,1.14-2.23,2.13-1.72,2.98,1.53,4.3,5.36,2.69,30.75,2.74,35.44.05,4.58.27,9.19.21,13.77,0-.61.01-1.18.02-1.73,0,0,0,0,0,0-.14-3.7.18-15.65,0,0,.17,4.62.39,9.23.65,13.85.07,1.13.17,3.71.23,5.44.56,8.9,1.8,18.62,3.16,26.99.67,4.12,1.36,7.92,2.01,11.12,6.11,30.03,16.59,58.89,33.22,84.7,44.16,63.05,141.07,95.36,198.17,30.76,5.53-6.95,10.37-14.36,14.45-22.21-2.3-9.58-4.93-19.09-7.59-28.55-2.72-9.67-2.66-20.29-2.7-30.44-.06-17.46.38-34.92,1.51-52.34.97-15.06,2.22-30.11,4.45-45.04.02-.13.03-.26.05-.38-.02.13-.03.26-.05.38-.14,1.28,2.3-11.47,4.4-18.39.88-2.9,1.7-4.77,2.24-4.15.98,1.12,1.97,2.26,2.96,3.39,24.18,27.67,50.74,57.04,86.57,68.77,16.63,5.44,35.45,6.23,52.51,1.57-19.24-27.64-40.46-53.79-63.45-78.29-18.07-19.25-37.22-37.49-57.43-54.6-.9-.76-1.6-1.8-2.15-3.02L138.35.16C61.94.17,0,62.15,0,138.6l.14,1471.63c21.3,35.88,47.66,68.78,78.57,97.4,91.77,84.98,217.84,122.55,341.78,118.37,12.28-.41,24.5-1.23,36.63-2.42-.7-18.92-1.44-37.85-2.24-56.77-5.06-120.07-12.06-240.06-21.11-359.9-12.88-170.64-29.83-340.97-50.74-510.81" style="fill: #01a880; stroke-width: 0px;"/>
  <path d="M1853.11,1677.3c-42.97,47.32-91.07,89.7-140.54,130.05-51.87,42.31-104.73,84.09-161.34,119.93-48.84,30.92-103.43,57.5-160.25,73.35l470.61-.04c76.42,0,138.36-61.99,138.35-138.44l-.04-474.37c-7.59,46.57-19.77,92.15-40.17,135.24-26.89,56.82-64.49,107.87-106.63,154.27Z" style="fill: #01a880; stroke-width: 0px;"/>
  <path d="M1821.36,441.96c-148.16-2.09-312.73-20.92-439.53,70.08-18.69,14.63-35.47,31.2-50.04,49.72.23,2.42.47,4.84.74,7.25,3.28,29.56,10.73,58.19,21.19,86.07,47.16,114.69,143.21,198.73,255.9,249.32,28.69,12.88,52.14,27.18,62.11,58.19,13.67,42.51-3.06,95.39-13.14,136.1-15.26,61.63-31.99,130.78-66.62,185.23-15.91,25.01-37.95,45.19-60.46,64.33-80.56,68.46-174.13,121.17-274.67,155.7-83.98,28.84-172.31,45.05-261.11,48.24-58.68,140.63-145.37,270.7-263.52,367.68-24.4,20.03-50.14,38.67-77.26,55.68-14.31,8.97-29.09,17.36-44.21,25.18l573.37-.05c-3.97-1.31-7.94-2.71-11.89-4.21-13.72-5.18-26.83-11.52-39.24-18.9-37.16-22.09-68.07-53.51-90.35-91.25-15.69-26.58-24.83-55.22-29.71-85.6-4.9-30.47-4.63-62.04-3.96-92.78.91-42.37,3.33-85.54,10.52-127.38,0-.04,3.04-29.33,8.64-29.04,5.5.29,5.3,25.6,5.56,29.78,1.08,17.47.8,35.36.09,53.03.79,3.12,1.62,6.24,2.55,9.32,6.25,20.64,15.69,40.07,27.33,58.19,37.68,54.97,94.46,91.48,159.45,105.77,133.38,29.33,264.77-29.03,372.42-103.49,54.28-37.54,106.22-79,156.59-121.62,47.62-40.3,93.22-83.17,133.34-131.03,25.56-31.13,48.7-64.23,67.73-99.78,8.77-16.38,16.68-33.22,23.55-50.49,2.76-6.93,5.31-13.93,7.65-21.01.65-1.97,1.38-3.97,2.04-5.99-.64-3.02-1.27-6.04-1.97-9.04-1.57-6.74-3.35-13.44-5.33-20.07-8.29-27.75-20.29-54.23-36.06-78.52-19.09-27.79-43.02-51.54-71.4-69.85-6.62-4.27-5.13-22.78-5.56-29.78-1.47-23.64-.36-47.52.77-71.15,1.12-23.37,2.92-47.32,6.6-70.47-.04.2-.02.1.06-.37-.02.12-.04.25-.06.37.34-1.93,5.43-31.52,8.69-29.41,10.79,6.96,21.06,14.63,30.66,23.17,47.12,41.94,73.32,95.81,87.09,154.2l-.06-645.94c-22.97,5-46.21,8.46-69.62,10.77-36,3.55-72.4,4.39-108.84,3.88ZM1850.28,683.24c-.08,34.11-1.12,68.19-3.72,102.2-1.98,25.88-3.91,54.65-10.27,80.22-.2.8-5.4,26.82-10.73,12.62-2.75-7.33-6.21-14.21-10.31-20.84-25.66-35.36-69.43-55.67-113.1-49.54-10.73,1.51-6.68-121.45-6.22-131.11,1.46-30.52,3.82-61.81,8.64-92.03-.07.42,3.97-36.7,11.22-37.72,56.03-7.87,110.21,27.78,129.86,80.06,6.25,16.62,4.68,37.99,4.63,56.13Z" style="fill: #01a880; stroke-width: 0px;"/>
  <path d="M932.4,1270.78c-14.7-11.12-31.34-19.8-49.9-25.09-37.16-10.59-75.35-5.18-109.61,9.78,42.56,22.84,103.12,14.52,159.51,15.31Z" style="fill: #01a880; stroke-width: 0px;"/>
</svg>